<svg version="1.2" xmlns="http://www.w3.org/2000/svg" viewBox="0 0 500 500" width="500" height="500">
	<title>My Icon</title>
	<style>
		.s0 { fill: #fb3b00 } 
		.s1 { fill: #ff660c } 
		.s2 { fill: #1c171d } 
		.s3 { fill: #0000ff } 
		.s4 { fill: #0a2986 } 
		.s5 { fill: #f92f00 } 
		.s6 { fill: #ffffff } 
	</style>
	<path id="Layer 6" class="s0" d="m406.5 276.1l-140.4-51.3 40.4-42.1 64.3 55.2zm-139.1-50.9l-99.8-108-0.2-8.4 140.6 73.7z"/>
	<path id="Layer 7" class="s1" d="m405.3 274.8l-101.9-90.5-46.3-26.6-48.7-25.6-40.3-23.1 6.2-0.8 173.1 27.8 61.5 129.1z"/>
	<path id="Layer 5" class="s2" d="m308.7 188.2l5.4 7.8-17.3 50-11.1-1.6z"/>
	<path id="Layer 1" class="s3" d=""/>
	<path id="Shape 2" class="s4" d="m301.2 259c-5.7-3.3-21.1 14.7-25.8 18.7-5.4 4.7-18.8 23-22.1 27.5-3.9 5.4-20.7 52.3-24.1 56.2-3.9 4.5-34.6 21.5-34.6 27.3 0 5.8-3 11.6 0.5 16.5 3.5 4.9 37.6-16.4 42.7-17.6 7.6-1.9 34.7-17 41.3-19.4 6.6-2.5 14.3-12.1 18.1-16.4 4.3-5 8.5-20.3 12-25.3 3.5-4.9 10.8-30.5 10.1-36.2-0.6-6 0.3-19-0.3-27.3-0.5-6-12.5-1-17.8-4zm-39.5-29.5c-4.4-2.3-12.1-1.9-16.9-1.9-4.8 0-10.5 3.5-14.6 5.7q-6.1 3.3-9.6 8.9c-2.4 3.8-5.2 10.7-5.2 15.2 0 4.4-0.2 12.5 0.3 16.6 0.5 4.4 4.9 14.4 9 16.6 4 2.1 23.8 14.4 28.6 14.4 4.8 0 6.8 4.2 10.9 2.1 4-2.2 11.6-31.1 14-34.9 2.3-3.8 14.4-23.8 14.4-28.3 0-4.4-9.4-5.9-14.4-7.7-4.2-1.5-12.4-4.6-16.5-6.7z"/>
	<path id="Layer 4" class="s5" d="m194.2 389.9c-1.1-0.8-3.6 3.9-4.9 3.9-1.3 0-1.8 2.3-2.6 3.4-0.8 1-1 0.6-1.6 2-0.6 1.4-1.8 3.2-2.4 4.8-0.7 1.7-3 6.4-3.3 8.2-0.2 1.5 0.6 5 1.7 5.8 1 0.8 1.4 1.6 2.7 1.6 1.3 0 1.9-0.9 3-1.7 1.1-0.8 3.8-4.4 4.4-5.8 0.6-1.3 5-4.8 4.1-6.2-1-1.3-1-4.3-1.2-6.2-0.3-1.5 1.1-9 0.1-9.8z"/>
	<path id="Layer 3" class="s6" d="m291.8 244.6l4.8 1.5q0.3-0.7 0.5-1.2c2.1-4.5 7.5-11.4 9.2-12.3 1.7-1 6.4-2.6 8.4-2.6 2 0 7.5 3 9.1 3.9 1.7 1 3.8 4.5 4.8 6.2 1 1.7-12.1 19-12.1 21 0 2-2.3 3.1-3.3 4.8-0.9 1.7-0.9 2.2-3.3 2.5-1.9 0.3-1.1 0.5-3.1 0.5-2 0-3.5-7.1-5.2-8.1-0.5-0.3-1.2-0.6-1.9-1l-25.4 55.7-11.7-6.7z"/>
</svg>